<svg class="rich-terminal" viewBox="0 0 1238 830.8" xmlns="http://www.w3.org/2000/svg">
    <!-- Generated with Rich https://www.textualize.io -->
    <style>

    @font-face {
        font-family: "Fira Code";
        src: local("FiraCode-Regular"),
                url("https://cdnjs.cloudflare.com/ajax/libs/firacode/6.2.0/woff2/FiraCode-Regular.woff2") format("woff2"),
                url("https://cdnjs.cloudflare.com/ajax/libs/firacode/6.2.0/woff/FiraCode-Regular.woff") format("woff");
        font-style: normal;
        font-weight: 400;
    }
    @font-face {
        font-family: "Fira Code";
        src: local("FiraCode-Bold"),
                url("https://cdnjs.cloudflare.com/ajax/libs/firacode/6.2.0/woff2/FiraCode-Bold.woff2") format("woff2"),
                url("https://cdnjs.cloudflare.com/ajax/libs/firacode/6.2.0/woff/FiraCode-Bold.woff") format("woff");
        font-style: bold;
        font-weight: 700;
    }

    .terminal-2870237284-matrix {
        font-family: Fira Code, monospace;
        font-size: 20px;
        line-height: 24.4px;
        font-variant-east-asian: full-width;
    }

    .terminal-2870237284-title {
        font-size: 18px;
        font-weight: bold;
        font-family: arial;
    }

    .terminal-2870237284-r1 { fill: #121212 }
.terminal-2870237284-r2 { fill: #0178d4 }
.terminal-2870237284-r3 { fill: #c5c8c6 }
.terminal-2870237284-r4 { fill: #797979 }
.terminal-2870237284-r5 { fill: #e0e0e0 }
.terminal-2870237284-r6 { fill: #262626 }
.terminal-2870237284-r7 { fill: #e1e1e1 }
.terminal-2870237284-r8 { fill: #0053aa }
.terminal-2870237284-r9 { fill: #7f7f7f }
.terminal-2870237284-r10 { fill: #313131 }
.terminal-2870237284-r11 { fill: #000000 }
.terminal-2870237284-r12 { fill: #ffa62b;font-weight: bold }
.terminal-2870237284-r13 { fill: #495259 }
    </style>

    <defs>
    <clipPath id="terminal-2870237284-clip-terminal">
      <rect x="0" y="0" width="1219.0" height="779.8" />
    </clipPath>
    <clipPath id="terminal-2870237284-line-0">
    <rect x="0" y="1.5" width="1220" height="24.65"/>
            </clipPath>
<clipPath id="terminal-2870237284-line-1">
    <rect x="0" y="25.9" width="1220" height="24.65"/>
            </clipPath>
<clipPath id="terminal-2870237284-line-2">
    <rect x="0" y="50.3" width="1220" height="24.65"/>
            </clipPath>
<clipPath id="terminal-2870237284-line-3">
    <rect x="0" y="74.7" width="1220" height="24.65"/>
            </clipPath>
<clipPath id="terminal-2870237284-line-4">
    <rect x="0" y="99.1" width="1220" height="24.65"/>
            </clipPath>
<clipPath id="terminal-2870237284-line-5">
    <rect x="0" y="123.5" width="1220" height="24.65"/>
            </clipPath>
<clipPath id="terminal-2870237284-line-6">
    <rect x="0" y="147.9" width="1220" height="24.65"/>
            </clipPath>
<clipPath id="terminal-2870237284-line-7">
    <rect x="0" y="172.3" width="1220" height="24.65"/>
            </clipPath>
<clipPath id="terminal-2870237284-line-8">
    <rect x="0" y="196.7" width="1220" height="24.65"/>
            </clipPath>
<clipPath id="terminal-2870237284-line-9">
    <rect x="0" y="221.1" width="1220" height="24.65"/>
            </clipPath>
<clipPath id="terminal-2870237284-line-10">
    <rect x="0" y="245.5" width="1220" height="24.65"/>
            </clipPath>
<clipPath id="terminal-2870237284-line-11">
    <rect x="0" y="269.9" width="1220" height="24.65"/>
            </clipPath>
<clipPath id="terminal-2870237284-line-12">
    <rect x="0" y="294.3" width="1220" height="24.65"/>
            </clipPath>
<clipPath id="terminal-2870237284-line-13">
    <rect x="0" y="318.7" width="1220" height="24.65"/>
            </clipPath>
<clipPath id="terminal-2870237284-line-14">
    <rect x="0" y="343.1" width="1220" height="24.65"/>
            </clipPath>
<clipPath id="terminal-2870237284-line-15">
    <rect x="0" y="367.5" width="1220" height="24.65"/>
            </clipPath>
<clipPath id="terminal-2870237284-line-16">
    <rect x="0" y="391.9" width="1220" height="24.65"/>
            </clipPath>
<clipPath id="terminal-2870237284-line-17">
    <rect x="0" y="416.3" width="1220" height="24.65"/>
            </clipPath>
<clipPath id="terminal-2870237284-line-18">
    <rect x="0" y="440.7" width="1220" height="24.65"/>
            </clipPath>
<clipPath id="terminal-2870237284-line-19">
    <rect x="0" y="465.1" width="1220" height="24.65"/>
            </clipPath>
<clipPath id="terminal-2870237284-line-20">
    <rect x="0" y="489.5" width="1220" height="24.65"/>
            </clipPath>
<clipPath id="terminal-2870237284-line-21">
    <rect x="0" y="513.9" width="1220" height="24.65"/>
            </clipPath>
<clipPath id="terminal-2870237284-line-22">
    <rect x="0" y="538.3" width="1220" height="24.65"/>
            </clipPath>
<clipPath id="terminal-2870237284-line-23">
    <rect x="0" y="562.7" width="1220" height="24.65"/>
            </clipPath>
<clipPath id="terminal-2870237284-line-24">
    <rect x="0" y="587.1" width="1220" height="24.65"/>
            </clipPath>
<clipPath id="terminal-2870237284-line-25">
    <rect x="0" y="611.5" width="1220" height="24.65"/>
            </clipPath>
<clipPath id="terminal-2870237284-line-26">
    <rect x="0" y="635.9" width="1220" height="24.65"/>
            </clipPath>
<clipPath id="terminal-2870237284-line-27">
    <rect x="0" y="660.3" width="1220" height="24.65"/>
            </clipPath>
<clipPath id="terminal-2870237284-line-28">
    <rect x="0" y="684.7" width="1220" height="24.65"/>
            </clipPath>
<clipPath id="terminal-2870237284-line-29">
    <rect x="0" y="709.1" width="1220" height="24.65"/>
            </clipPath>
<clipPath id="terminal-2870237284-line-30">
    <rect x="0" y="733.5" width="1220" height="24.65"/>
            </clipPath>
    </defs>

    <rect fill="#292929" stroke="rgba(255,255,255,0.35)" stroke-width="1" x="1" y="1" width="1236" height="828.8" rx="8"/><text class="terminal-2870237284-title" fill="#c5c8c6" text-anchor="middle" x="618" y="27">AgentPanel</text>
            <g transform="translate(26,22)">
            <circle cx="0" cy="0" r="7" fill="#ff5f57"/>
            <circle cx="22" cy="0" r="7" fill="#febc2e"/>
            <circle cx="44" cy="0" r="7" fill="#28c840"/>
            </g>
        
    <g transform="translate(9, 41)" clip-path="url(#terminal-2870237284-clip-terminal)">
    <rect fill="#0178d4" x="0" y="1.5" width="12.2" height="24.65" shape-rendering="crispEdges"/><rect fill="#272727" x="12.2" y="1.5" width="85.4" height="24.65" shape-rendering="crispEdges"/><rect fill="#272727" x="97.6" y="1.5" width="1000.4" height="24.65" shape-rendering="crispEdges"/><rect fill="#272727" x="1098" y="1.5" width="109.8" height="24.65" shape-rendering="crispEdges"/><rect fill="#121212" x="1207.8" y="1.5" width="12.2" height="24.65" shape-rendering="crispEdges"/><rect fill="#0178d4" x="0" y="25.9" width="12.2" height="24.65" shape-rendering="crispEdges"/><rect fill="#272727" x="12.2" y="25.9" width="24.4" height="24.65" shape-rendering="crispEdges"/><rect fill="#e0e0e0" x="36.6" y="25.9" width="12.2" height="24.65" shape-rendering="crispEdges"/><rect fill="#272727" x="48.8" y="25.9" width="549" height="24.65" shape-rendering="crispEdges"/><rect fill="#272727" x="597.8" y="25.9" width="585.6" height="24.65" shape-rendering="crispEdges"/><rect fill="#272727" x="1183.4" y="25.9" width="24.4" height="24.65" shape-rendering="crispEdges"/><rect fill="#121212" x="1207.8" y="25.9" width="12.2" height="24.65" shape-rendering="crispEdges"/><rect fill="#0178d4" x="0" y="50.3" width="12.2" height="24.65" shape-rendering="crispEdges"/><rect fill="#272727" x="12.2" y="50.3" width="1195.6" height="24.65" shape-rendering="crispEdges"/><rect fill="#121212" x="1207.8" y="50.3" width="12.2" height="24.65" shape-rendering="crispEdges"/><rect fill="#121212" x="0" y="74.7" width="12.2" height="24.65" shape-rendering="crispEdges"/><rect fill="#121212" x="12.2" y="74.7" width="317.2" height="24.65" shape-rendering="crispEdges"/><rect fill="#121212" x="329.4" y="74.7" width="12.2" height="24.65" shape-rendering="crispEdges"/><rect fill="#121212" x="341.6" y="74.7" width="878.4" height="24.65" shape-rendering="crispEdges"/><rect fill="#121212" x="0" y="99.1" width="12.2" height="24.65" shape-rendering="crispEdges"/><rect fill="#121212" x="12.2" y="99.1" width="317.2" height="24.65" shape-rendering="crispEdges"/><rect fill="#121212" x="329.4" y="99.1" width="12.2" height="24.65" shape-rendering="crispEdges"/><rect fill="#121212" x="341.6" y="99.1" width="878.4" height="24.65" shape-rendering="crispEdges"/><rect fill="#121212" x="0" y="123.5" width="1220" height="24.65" shape-rendering="crispEdges"/><rect fill="#121212" x="0" y="147.9" width="12.2" height="24.65" shape-rendering="crispEdges"/><rect fill="#1b1b1b" x="12.2" y="147.9" width="12.2" height="24.65" shape-rendering="crispEdges"/><rect fill="#1b1b1b" x="24.4" y="147.9" width="1037" height="24.65" shape-rendering="crispEdges"/><rect fill="#1b1b1b" x="1061.4" y="147.9" width="109.8" height="24.65" shape-rendering="crispEdges"/><rect fill="#1b1b1b" x="1171.2" y="147.9" width="12.2" height="24.65" shape-rendering="crispEdges"/><rect fill="#003054" x="1183.4" y="147.9" width="24.4" height="24.65" shape-rendering="crispEdges"/><rect fill="#121212" x="1207.8" y="147.9" width="12.2" height="24.65" shape-rendering="crispEdges"/><rect fill="#121212" x="0" y="172.3" width="12.2" height="24.65" shape-rendering="crispEdges"/><rect fill="#121212" x="12.2" y="172.3" width="1171.2" height="24.65" shape-rendering="crispEdges"/><rect fill="#003054" x="1183.4" y="172.3" width="24.4" height="24.65" shape-rendering="crispEdges"/><rect fill="#121212" x="1207.8" y="172.3" width="12.2" height="24.65" shape-rendering="crispEdges"/><rect fill="#121212" x="0" y="196.7" width="12.2" height="24.65" shape-rendering="crispEdges"/><rect fill="#1e1e1e" x="12.2" y="196.7" width="12.2" height="24.65" shape-rendering="crispEdges"/><rect fill="#1e1e1e" x="24.4" y="196.7" width="1146.8" height="24.65" shape-rendering="crispEdges"/><rect fill="#1e1e1e" x="1171.2" y="196.7" width="12.2" height="24.65" shape-rendering="crispEdges"/><rect fill="#003054" x="1183.4" y="196.7" width="24.4" height="24.65" shape-rendering="crispEdges"/><rect fill="#121212" x="1207.8" y="196.7" width="12.2" height="24.65" shape-rendering="crispEdges"/><rect fill="#121212" x="0" y="221.1" width="12.2" height="24.65" shape-rendering="crispEdges"/><rect fill="#1e1e1e" x="12.2" y="221.1" width="12.2" height="24.65" shape-rendering="crispEdges"/><rect fill="#1e1e1e" x="24.4" y="221.1" width="12.2" height="24.65" shape-rendering="crispEdges"/><rect fill="#1e1e1e" x="36.6" y="221.1" width="12.2" height="24.65" shape-rendering="crispEdges"/><rect fill="#1e1e1e" x="48.8" y="221.1" width="463.6" height="24.65" shape-rendering="crispEdges"/><rect fill="#1e1e1e" x="512.4" y="221.1" width="12.2" height="24.65" shape-rendering="crispEdges"/><rect fill="#1e1e1e" x="524.6" y="221.1" width="646.6" height="24.65" shape-rendering="crispEdges"/><rect fill="#1e1e1e" x="1171.2" y="221.1" width="12.2" height="24.65" shape-rendering="crispEdges"/><rect fill="#003054" x="1183.4" y="221.1" width="24.4" height="24.65" shape-rendering="crispEdges"/><rect fill="#121212" x="1207.8" y="221.1" width="12.2" height="24.65" shape-rendering="crispEdges"/><rect fill="#121212" x="0" y="245.5" width="12.2" height="24.65" shape-rendering="crispEdges"/><rect fill="#1e1e1e" x="12.2" y="245.5" width="12.2" height="24.65" shape-rendering="crispEdges"/><rect fill="#1e1e1e" x="24.4" y="245.5" width="12.2" height="24.65" shape-rendering="crispEdges"/><rect fill="#1e1e1e" x="36.6" y="245.5" width="1134.6" height="24.65" shape-rendering="crispEdges"/><rect fill="#1e1e1e" x="1171.2" y="245.5" width="12.2" height="24.65" shape-rendering="crispEdges"/><rect fill="#003054" x="1183.4" y="245.5" width="24.4" height="24.65" shape-rendering="crispEdges"/><rect fill="#121212" x="1207.8" y="245.5" width="12.2" height="24.65" shape-rendering="crispEdges"/><rect fill="#121212" x="0" y="269.9" width="12.2" height="24.65" shape-rendering="crispEdges"/><rect fill="#1e1e1e" x="12.2" y="269.9" width="12.2" height="24.65" shape-rendering="crispEdges"/><rect fill="#1e1e1e" x="24.4" y="269.9" width="12.2" height="24.65" shape-rendering="crispEdges"/><rect fill="#1e1e1e" x="36.6" y="269.9" width="36.6" height="24.65" shape-rendering="crispEdges"/><rect fill="#1e1e1e" x="73.2" y="269.9" width="12.2" height="24.65" shape-rendering="crispEdges"/><rect fill="#1e1e1e" x="85.4" y="269.9" width="73.2" height="24.65" shape-rendering="crispEdges"/><rect fill="#1e1e1e" x="158.6" y="269.9" width="12.2" height="24.65" shape-rendering="crispEdges"/><rect fill="#1e1e1e" x="170.8" y="269.9" width="12.2" height="24.65" shape-rendering="crispEdges"/><rect fill="#1e1e1e" x="183" y="269.9" width="73.2" height="24.65" shape-rendering="crispEdges"/><rect fill="#1e1e1e" x="256.2" y="269.9" width="12.2" height="24.65" shape-rendering="crispEdges"/><rect fill="#1e1e1e" x="268.4" y="269.9" width="12.2" height="24.65" shape-rendering="crispEdges"/><rect fill="#1e1e1e" x="280.6" y="269.9" width="73.2" height="24.65" shape-rendering="crispEdges"/><rect fill="#1e1e1e" x="353.8" y="269.9" width="12.2" height="24.65" shape-rendering="crispEdges"/><rect fill="#1e1e1e" x="366" y="269.9" width="805.2" height="24.65" shape-rendering="crispEdges"/><rect fill="#1e1e1e" x="1171.2" y="269.9" width="12.2" height="24.65" shape-rendering="crispEdges"/><rect fill="#003054" x="1183.4" y="269.9" width="24.4" height="24.65" shape-rendering="crispEdges"/><rect fill="#121212" x="1207.8" y="269.9" width="12.2" height="24.65" shape-rendering="crispEdges"/><rect fill="#121212" x="0" y="294.3" width="12.2" height="24.65" shape-rendering="crispEdges"/><rect fill="#1e1e1e" x="12.2" y="294.3" width="12.2" height="24.65" shape-rendering="crispEdges"/><rect fill="#1e1e1e" x="24.4" y="294.3" width="12.2" height="24.65" shape-rendering="crispEdges"/><rect fill="#1e1e1e" x="36.6" y="294.3" width="36.6" height="24.65" shape-rendering="crispEdges"/><rect fill="#1e1e1e" x="73.2" y="294.3" width="195.2" height="24.65" shape-rendering="crispEdges"/><rect fill="#1e1e1e" x="268.4" y="294.3" width="12.2" height="24.65" shape-rendering="crispEdges"/><rect fill="#1e1e1e" x="280.6" y="294.3" width="73.2" height="24.65" shape-rendering="crispEdges"/><rect fill="#1e1e1e" x="353.8" y="294.3" width="12.2" height="24.65" shape-rendering="crispEdges"/><rect fill="#1e1e1e" x="366" y="294.3" width="805.2" height="24.65" shape-rendering="crispEdges"/><rect fill="#1e1e1e" x="1171.2" y="294.3" width="12.2" height="24.65" shape-rendering="crispEdges"/><rect fill="#003054" x="1183.4" y="294.3" width="24.4" height="24.65" shape-rendering="crispEdges"/><rect fill="#121212" x="1207.8" y="294.3" width="12.2" height="24.65" shape-rendering="crispEdges"/><rect fill="#121212" x="0" y="318.7" width="12.2" height="24.65" shape-rendering="crispEdges"/><rect fill="#1e1e1e" x="12.2" y="318.7" width="12.2" height="24.65" shape-rendering="crispEdges"/><rect fill="#1e1e1e" x="24.4" y="318.7" width="12.2" height="24.65" shape-rendering="crispEdges"/><rect fill="#1e1e1e" x="36.6" y="318.7" width="36.6" height="24.65" shape-rendering="crispEdges"/><rect fill="#1e1e1e" x="73.2" y="318.7" width="12.2" height="24.65" shape-rendering="crispEdges"/><rect fill="#1e1e1e" x="85.4" y="318.7" width="280.6" height="24.65" shape-rendering="crispEdges"/><rect fill="#1e1e1e" x="366" y="318.7" width="793" height="24.65" shape-rendering="crispEdges"/><rect fill="#1e1e1e" x="1159" y="318.7" width="12.2" height="24.65" shape-rendering="crispEdges"/><rect fill="#1e1e1e" x="1171.2" y="318.7" width="12.2" height="24.65" shape-rendering="crispEdges"/><rect fill="#003054" x="1183.4" y="318.7" width="24.4" height="24.65" shape-rendering="crispEdges"/><rect fill="#121212" x="1207.8" y="318.7" width="12.2" height="24.65" shape-rendering="crispEdges"/><rect fill="#121212" x="0" y="343.1" width="12.2" height="24.65" shape-rendering="crispEdges"/><rect fill="#1e1e1e" x="12.2" y="343.1" width="12.2" height="24.65" shape-rendering="crispEdges"/><rect fill="#1e1e1e" x="24.4" y="343.1" width="12.2" height="24.65" shape-rendering="crispEdges"/><rect fill="#1e1e1e" x="36.6" y="343.1" width="36.6" height="24.65" shape-rendering="crispEdges"/><rect fill="#1e1e1e" x="73.2" y="343.1" width="12.2" height="24.65" shape-rendering="crispEdges"/><rect fill="#1e1e1e" x="85.4" y="343.1" width="634.4" height="24.65" shape-rendering="crispEdges"/><rect fill="#1e1e1e" x="719.8" y="343.1" width="439.2" height="24.65" shape-rendering="crispEdges"/><rect fill="#1e1e1e" x="1159" y="343.1" width="12.2" height="24.65" shape-rendering="crispEdges"/><rect fill="#1e1e1e" x="1171.2" y="343.1" width="12.2" height="24.65" shape-rendering="crispEdges"/><rect fill="#003054" x="1183.4" y="343.1" width="24.4" height="24.65" shape-rendering="crispEdges"/><rect fill="#121212" x="1207.8" y="343.1" width="12.2" height="24.65" shape-rendering="crispEdges"/><rect fill="#121212" x="0" y="367.5" width="12.2" height="24.65" shape-rendering="crispEdges"/><rect fill="#1e1e1e" x="12.2" y="367.5" width="12.2" height="24.65" shape-rendering="crispEdges"/><rect fill="#1e1e1e" x="24.4" y="367.5" width="12.2" height="24.65" shape-rendering="crispEdges"/><rect fill="#1e1e1e" x="36.6" y="367.5" width="36.6" height="24.65" shape-rendering="crispEdges"/><rect fill="#1e1e1e" x="73.2" y="367.5" width="12.2" height="24.65" shape-rendering="crispEdges"/><rect fill="#1e1e1e" x="85.4" y="367.5" width="0" height="24.65" shape-rendering="crispEdges"/><rect fill="#1e1e1e" x="85.4" y="367.5" width="1073.6" height="24.65" shape-rendering="crispEdges"/><rect fill="#1e1e1e" x="1159" y="367.5" width="12.2" height="24.65" shape-rendering="crispEdges"/><rect fill="#1e1e1e" x="1171.2" y="367.5" width="12.2" height="24.65" shape-rendering="crispEdges"/><rect fill="#003054" x="1183.4" y="367.5" width="24.4" height="24.65" shape-rendering="crispEdges"/><rect fill="#121212" x="1207.8" y="367.5" width="12.2" height="24.65" shape-rendering="crispEdges"/><rect fill="#121212" x="0" y="391.9" width="12.2" height="24.65" shape-rendering="crispEdges"/><rect fill="#1e1e1e" x="12.2" y="391.9" width="12.2" height="24.65" shape-rendering="crispEdges"/><rect fill="#1e1e1e" x="24.4" y="391.9" width="1146.8" height="24.65" shape-rendering="crispEdges"/><rect fill="#1e1e1e" x="1171.2" y="391.9" width="12.2" height="24.65" shape-rendering="crispEdges"/><rect fill="#003054" x="1183.4" y="391.9" width="24.4" height="24.65" shape-rendering="crispEdges"/><rect fill="#121212" x="1207.8" y="391.9" width="12.2" height="24.65" shape-rendering="crispEdges"/><rect fill="#121212" x="0" y="416.3" width="12.2" height="24.65" shape-rendering="crispEdges"/><rect fill="#1e1e1e" x="12.2" y="416.3" width="12.2" height="24.65" shape-rendering="crispEdges"/><rect fill="#1e1e1e" x="24.4" y="416.3" width="1146.8" height="24.65" shape-rendering="crispEdges"/><rect fill="#1e1e1e" x="1171.2" y="416.3" width="12.2" height="24.65" shape-rendering="crispEdges"/><rect fill="#003054" x="1183.4" y="416.3" width="24.4" height="24.65" shape-rendering="crispEdges"/><rect fill="#121212" x="1207.8" y="416.3" width="12.2" height="24.65" shape-rendering="crispEdges"/><rect fill="#121212" x="0" y="440.7" width="12.2" height="24.65" shape-rendering="crispEdges"/><rect fill="#121212" x="12.2" y="440.7" width="1171.2" height="24.65" shape-rendering="crispEdges"/><rect fill="#003054" x="1183.4" y="440.7" width="24.4" height="24.65" shape-rendering="crispEdges"/><rect fill="#121212" x="1207.8" y="440.7" width="12.2" height="24.65" shape-rendering="crispEdges"/><rect fill="#121212" x="0" y="465.1" width="12.2" height="24.65" shape-rendering="crispEdges"/><rect fill="#1e1e1e" x="12.2" y="465.1" width="12.2" height="24.65" shape-rendering="crispEdges"/><rect fill="#1e1e1e" x="24.4" y="465.1" width="1146.8" height="24.65" shape-rendering="crispEdges"/><rect fill="#1e1e1e" x="1171.2" y="465.1" width="12.2" height="24.65" shape-rendering="crispEdges"/><rect fill="#003054" x="1183.4" y="465.1" width="24.4" height="24.65" shape-rendering="crispEdges"/><rect fill="#121212" x="1207.8" y="465.1" width="12.2" height="24.65" shape-rendering="crispEdges"/><rect fill="#121212" x="0" y="489.5" width="12.2" height="24.65" shape-rendering="crispEdges"/><rect fill="#1e1e1e" x="12.2" y="489.5" width="12.2" height="24.65" shape-rendering="crispEdges"/><rect fill="#1e1e1e" x="24.4" y="489.5" width="12.2" height="24.65" shape-rendering="crispEdges"/><rect fill="#1e1e1e" x="36.6" y="489.5" width="12.2" height="24.65" shape-rendering="crispEdges"/><rect fill="#1e1e1e" x="48.8" y="489.5" width="463.6" height="24.65" shape-rendering="crispEdges"/><rect fill="#1e1e1e" x="512.4" y="489.5" width="12.2" height="24.65" shape-rendering="crispEdges"/><rect fill="#1e1e1e" x="524.6" y="489.5" width="646.6" height="24.65" shape-rendering="crispEdges"/><rect fill="#1e1e1e" x="1171.2" y="489.5" width="12.2" height="24.65" shape-rendering="crispEdges"/><rect fill="#003054" x="1183.4" y="489.5" width="24.4" height="24.65" shape-rendering="crispEdges"/><rect fill="#121212" x="1207.8" y="489.5" width="12.2" height="24.65" shape-rendering="crispEdges"/><rect fill="#121212" x="0" y="513.9" width="12.2" height="24.65" shape-rendering="crispEdges"/><rect fill="#1e1e1e" x="12.2" y="513.9" width="12.2" height="24.65" shape-rendering="crispEdges"/><rect fill="#1e1e1e" x="24.4" y="513.9" width="12.2" height="24.65" shape-rendering="crispEdges"/><rect fill="#1e1e1e" x="36.6" y="513.9" width="1134.6" height="24.65" shape-rendering="crispEdges"/><rect fill="#1e1e1e" x="1171.2" y="513.9" width="12.2" height="24.65" shape-rendering="crispEdges"/><rect fill="#003054" x="1183.4" y="513.9" width="24.4" height="24.65" shape-rendering="crispEdges"/><rect fill="#121212" x="1207.8" y="513.9" width="12.2" height="24.65" shape-rendering="crispEdges"/><rect fill="#121212" x="0" y="538.3" width="12.2" height="24.65" shape-rendering="crispEdges"/><rect fill="#1e1e1e" x="12.2" y="538.3" width="12.2" height="24.65" shape-rendering="crispEdges"/><rect fill="#1e1e1e" x="24.4" y="538.3" width="12.2" height="24.65" shape-rendering="crispEdges"/><rect fill="#1e1e1e" x="36.6" y="538.3" width="36.6" height="24.65" shape-rendering="crispEdges"/><rect fill="#1e1e1e" x="73.2" y="538.3" width="12.2" height="24.65" shape-rendering="crispEdges"/><rect fill="#1e1e1e" x="85.4" y="538.3" width="73.2" height="24.65" shape-rendering="crispEdges"/><rect fill="#1e1e1e" x="158.6" y="538.3" width="12.2" height="24.65" shape-rendering="crispEdges"/><rect fill="#1e1e1e" x="170.8" y="538.3" width="12.2" height="24.65" shape-rendering="crispEdges"/><rect fill="#1e1e1e" x="183" y="538.3" width="73.2" height="24.65" shape-rendering="crispEdges"/><rect fill="#1e1e1e" x="256.2" y="538.3" width="12.2" height="24.65" shape-rendering="crispEdges"/><rect fill="#1e1e1e" x="268.4" y="538.3" width="12.2" height="24.65" shape-rendering="crispEdges"/><rect fill="#1e1e1e" x="280.6" y="538.3" width="73.2" height="24.65" shape-rendering="crispEdges"/><rect fill="#1e1e1e" x="353.8" y="538.3" width="12.2" height="24.65" shape-rendering="crispEdges"/><rect fill="#1e1e1e" x="366" y="538.3" width="805.2" height="24.65" shape-rendering="crispEdges"/><rect fill="#1e1e1e" x="1171.2" y="538.3" width="12.2" height="24.65" shape-rendering="crispEdges"/><rect fill="#003054" x="1183.4" y="538.3" width="24.4" height="24.65" shape-rendering="crispEdges"/><rect fill="#121212" x="1207.8" y="538.3" width="12.2" height="24.65" shape-rendering="crispEdges"/><rect fill="#121212" x="0" y="562.7" width="12.2" height="24.65" shape-rendering="crispEdges"/><rect fill="#1e1e1e" x="12.2" y="562.7" width="12.2" height="24.65" shape-rendering="crispEdges"/><rect fill="#1e1e1e" x="24.4" y="562.7" width="12.2" height="24.65" shape-rendering="crispEdges"/><rect fill="#1e1e1e" x="36.6" y="562.7" width="36.6" height="24.65" shape-rendering="crispEdges"/><rect fill="#1e1e1e" x="73.2" y="562.7" width="195.2" height="24.65" shape-rendering="crispEdges"/><rect fill="#1e1e1e" x="268.4" y="562.7" width="12.2" height="24.65" shape-rendering="crispEdges"/><rect fill="#1e1e1e" x="280.6" y="562.7" width="73.2" height="24.65" shape-rendering="crispEdges"/><rect fill="#1e1e1e" x="353.8" y="562.7" width="12.2" height="24.65" shape-rendering="crispEdges"/><rect fill="#1e1e1e" x="366" y="562.7" width="805.2" height="24.65" shape-rendering="crispEdges"/><rect fill="#1e1e1e" x="1171.2" y="562.7" width="12.2" height="24.65" shape-rendering="crispEdges"/><rect fill="#003054" x="1183.4" y="562.7" width="24.4" height="24.65" shape-rendering="crispEdges"/><rect fill="#121212" x="1207.8" y="562.7" width="12.2" height="24.65" shape-rendering="crispEdges"/><rect fill="#121212" x="0" y="587.1" width="12.2" height="24.65" shape-rendering="crispEdges"/><rect fill="#1e1e1e" x="12.2" y="587.1" width="12.2" height="24.65" shape-rendering="crispEdges"/><rect fill="#1e1e1e" x="24.4" y="587.1" width="12.2" height="24.65" shape-rendering="crispEdges"/><rect fill="#1e1e1e" x="36.6" y="587.1" width="36.6" height="24.65" shape-rendering="crispEdges"/><rect fill="#1e1e1e" x="73.2" y="587.1" width="12.2" height="24.65" shape-rendering="crispEdges"/><rect fill="#1e1e1e" x="85.4" y="587.1" width="280.6" height="24.65" shape-rendering="crispEdges"/><rect fill="#1e1e1e" x="366" y="587.1" width="793" height="24.65" shape-rendering="crispEdges"/><rect fill="#1e1e1e" x="1159" y="587.1" width="12.2" height="24.65" shape-rendering="crispEdges"/><rect fill="#1e1e1e" x="1171.2" y="587.1" width="12.2" height="24.65" shape-rendering="crispEdges"/><rect fill="#003054" x="1183.4" y="587.1" width="24.4" height="24.65" shape-rendering="crispEdges"/><rect fill="#121212" x="1207.8" y="587.1" width="12.2" height="24.65" shape-rendering="crispEdges"/><rect fill="#121212" x="0" y="611.5" width="12.2" height="24.65" shape-rendering="crispEdges"/><rect fill="#1e1e1e" x="12.2" y="611.5" width="12.2" height="24.65" shape-rendering="crispEdges"/><rect fill="#1e1e1e" x="24.4" y="611.5" width="12.2" height="24.65" shape-rendering="crispEdges"/><rect fill="#1e1e1e" x="36.6" y="611.5" width="36.6" height="24.65" shape-rendering="crispEdges"/><rect fill="#1e1e1e" x="73.2" y="611.5" width="12.2" height="24.65" shape-rendering="crispEdges"/><rect fill="#1e1e1e" x="85.4" y="611.5" width="634.4" height="24.65" shape-rendering="crispEdges"/><rect fill="#1e1e1e" x="719.8" y="611.5" width="439.2" height="24.65" shape-rendering="crispEdges"/><rect fill="#1e1e1e" x="1159" y="611.5" width="12.2" height="24.65" shape-rendering="crispEdges"/><rect fill="#1e1e1e" x="1171.2" y="611.5" width="12.2" height="24.65" shape-rendering="crispEdges"/><rect fill="#003054" x="1183.4" y="611.5" width="24.4" height="24.65" shape-rendering="crispEdges"/><rect fill="#121212" x="1207.8" y="611.5" width="12.2" height="24.65" shape-rendering="crispEdges"/><rect fill="#121212" x="0" y="635.9" width="12.2" height="24.65" shape-rendering="crispEdges"/><rect fill="#1e1e1e" x="12.2" y="635.9" width="12.2" height="24.65" shape-rendering="crispEdges"/><rect fill="#1e1e1e" x="24.4" y="635.9" width="12.2" height="24.65" shape-rendering="crispEdges"/><rect fill="#1e1e1e" x="36.6" y="635.9" width="36.6" height="24.65" shape-rendering="crispEdges"/><rect fill="#1e1e1e" x="73.2" y="635.9" width="12.2" height="24.65" shape-rendering="crispEdges"/><rect fill="#1e1e1e" x="85.4" y="635.9" width="0" height="24.65" shape-rendering="crispEdges"/><rect fill="#1e1e1e" x="85.4" y="635.9" width="1073.6" height="24.65" shape-rendering="crispEdges"/><rect fill="#1e1e1e" x="1159" y="635.9" width="12.2" height="24.65" shape-rendering="crispEdges"/><rect fill="#1e1e1e" x="1171.2" y="635.9" width="12.2" height="24.65" shape-rendering="crispEdges"/><rect fill="#000000" x="1183.4" y="635.9" width="24.4" height="24.65" shape-rendering="crispEdges"/><rect fill="#121212" x="1207.8" y="635.9" width="12.2" height="24.65" shape-rendering="crispEdges"/><rect fill="#121212" x="0" y="660.3" width="12.2" height="24.65" shape-rendering="crispEdges"/><rect fill="#1e1e1e" x="12.2" y="660.3" width="12.2" height="24.65" shape-rendering="crispEdges"/><rect fill="#1e1e1e" x="24.4" y="660.3" width="1146.8" height="24.65" shape-rendering="crispEdges"/><rect fill="#1e1e1e" x="1171.2" y="660.3" width="12.2" height="24.65" shape-rendering="crispEdges"/><rect fill="#000000" x="1183.4" y="660.3" width="24.4" height="24.65" shape-rendering="crispEdges"/><rect fill="#121212" x="1207.8" y="660.3" width="12.2" height="24.65" shape-rendering="crispEdges"/><rect fill="#121212" x="0" y="684.7" width="12.2" height="24.65" shape-rendering="crispEdges"/><rect fill="#1e1e1e" x="12.2" y="684.7" width="12.2" height="24.65" shape-rendering="crispEdges"/><rect fill="#1e1e1e" x="24.4" y="684.7" width="1146.8" height="24.65" shape-rendering="crispEdges"/><rect fill="#1e1e1e" x="1171.2" y="684.7" width="12.2" height="24.65" shape-rendering="crispEdges"/><rect fill="#000000" x="1183.4" y="684.7" width="24.4" height="24.65" shape-rendering="crispEdges"/><rect fill="#121212" x="1207.8" y="684.7" width="12.2" height="24.65" shape-rendering="crispEdges"/><rect fill="#121212" x="0" y="709.1" width="12.2" height="24.65" shape-rendering="crispEdges"/><rect fill="#121212" x="12.2" y="709.1" width="1171.2" height="24.65" shape-rendering="crispEdges"/><rect fill="#000000" x="1183.4" y="709.1" width="24.4" height="24.65" shape-rendering="crispEdges"/><rect fill="#121212" x="1207.8" y="709.1" width="12.2" height="24.65" shape-rendering="crispEdges"/><rect fill="#121212" x="0" y="733.5" width="1220" height="24.65" shape-rendering="crispEdges"/><rect fill="#242f38" x="0" y="757.9" width="48.8" height="24.65" shape-rendering="crispEdges"/><rect fill="#242f38" x="48.8" y="757.9" width="61" height="24.65" shape-rendering="crispEdges"/><rect fill="#242f38" x="109.8" y="757.9" width="48.8" height="24.65" shape-rendering="crispEdges"/><rect fill="#242f38" x="158.6" y="757.9" width="146.4" height="24.65" shape-rendering="crispEdges"/><rect fill="#242f38" x="305" y="757.9" width="768.6" height="24.65" shape-rendering="crispEdges"/><rect fill="#242f38" x="1073.6" y="757.9" width="12.2" height="24.65" shape-rendering="crispEdges"/><rect fill="#242f38" x="1085.8" y="757.9" width="24.4" height="24.65" shape-rendering="crispEdges"/><rect fill="#242f38" x="1110.2" y="757.9" width="97.6" height="24.65" shape-rendering="crispEdges"/><rect fill="#242f38" x="1207.8" y="757.9" width="12.2" height="24.65" shape-rendering="crispEdges"/>
    <g class="terminal-2870237284-matrix">
    <text class="terminal-2870237284-r1" x="0" y="20" textLength="12.2" clip-path="url(#terminal-2870237284-line-0)">▊</text><text class="terminal-2870237284-r2" x="12.2" y="20" textLength="85.4" clip-path="url(#terminal-2870237284-line-0)">▔▔▔▔▔▔▔</text><text class="terminal-2870237284-r2" x="97.6" y="20" textLength="1000.4" clip-path="url(#terminal-2870237284-line-0)">▔▔▔▔▔▔▔▔▔▔▔▔▔▔▔▔▔▔▔▔▔▔▔▔▔▔▔▔▔▔▔▔▔▔▔▔▔▔▔▔▔▔▔▔▔▔▔▔▔▔▔▔▔▔▔▔▔▔▔▔▔▔▔▔▔▔▔▔▔▔▔▔▔▔▔▔▔▔▔▔▔▔</text><text class="terminal-2870237284-r2" x="1098" y="20" textLength="109.8" clip-path="url(#terminal-2870237284-line-0)">▔▔▔▔▔▔▔▔▔</text><text class="terminal-2870237284-r2" x="1207.8" y="20" textLength="12.2" clip-path="url(#terminal-2870237284-line-0)">▎</text><text class="terminal-2870237284-r3" x="1220" y="20" textLength="12.2" clip-path="url(#terminal-2870237284-line-0)">
</text><text class="terminal-2870237284-r1" x="0" y="44.4" textLength="12.2" clip-path="url(#terminal-2870237284-line-1)">▊</text><text class="terminal-2870237284-r1" x="36.6" y="44.4" textLength="12.2" clip-path="url(#terminal-2870237284-line-1)">A</text><text class="terminal-2870237284-r4" x="48.8" y="44.4" textLength="549" clip-path="url(#terminal-2870237284-line-1)">sk&#160;the&#160;panel…&#160;&#160;(Enter&#160;to&#160;start&#160;a&#160;new&#160;session)</text><text class="terminal-2870237284-r2" x="1207.8" y="44.4" textLength="12.2" clip-path="url(#terminal-2870237284-line-1)">▎</text><text class="terminal-2870237284-r3" x="1220" y="44.4" textLength="12.2" clip-path="url(#terminal-2870237284-line-1)">
</text><text class="terminal-2870237284-r1" x="0" y="68.8" textLength="12.2" clip-path="url(#terminal-2870237284-line-2)">▊</text><text class="terminal-2870237284-r2" x="12.2" y="68.8" textLength="1195.6" clip-path="url(#terminal-2870237284-line-2)">▁▁▁▁▁▁▁▁▁▁▁▁▁▁▁▁▁▁▁▁▁▁▁▁▁▁▁▁▁▁▁▁▁▁▁▁▁▁▁▁▁▁▁▁▁▁▁▁▁▁▁▁▁▁▁▁▁▁▁▁▁▁▁▁▁▁▁▁▁▁▁▁▁▁▁▁▁▁▁▁▁▁▁▁▁▁▁▁▁▁▁▁▁▁▁▁▁▁</text><text class="terminal-2870237284-r2" x="1207.8" y="68.8" textLength="12.2" clip-path="url(#terminal-2870237284-line-2)">▎</text><text class="terminal-2870237284-r3" x="1220" y="68.8" textLength="12.2" clip-path="url(#terminal-2870237284-line-2)">
</text><text class="terminal-2870237284-r5" x="12.2" y="93.2" textLength="317.2" clip-path="url(#terminal-2870237284-line-3)">s001:&#160;Design&#160;session&#160;persi</text><text class="terminal-2870237284-r3" x="1220" y="93.2" textLength="12.2" clip-path="url(#terminal-2870237284-line-3)">
</text><text class="terminal-2870237284-r6" x="0" y="117.6" textLength="12.2" clip-path="url(#terminal-2870237284-line-4)">╸</text><text class="terminal-2870237284-r2" x="12.2" y="117.6" textLength="317.2" clip-path="url(#terminal-2870237284-line-4)">━━━━━━━━━━━━━━━━━━━━━━━━━━</text><text class="terminal-2870237284-r6" x="329.4" y="117.6" textLength="12.2" clip-path="url(#terminal-2870237284-line-4)">╺</text><text class="terminal-2870237284-r6" x="341.6" y="117.6" textLength="878.4" clip-path="url(#terminal-2870237284-line-4)">━━━━━━━━━━━━━━━━━━━━━━━━━━━━━━━━━━━━━━━━━━━━━━━━━━━━━━━━━━━━━━━━━━━━━━━━</text><text class="terminal-2870237284-r3" x="1220" y="117.6" textLength="12.2" clip-path="url(#terminal-2870237284-line-4)">
</text><text class="terminal-2870237284-r3" x="1220" y="142" textLength="12.2" clip-path="url(#terminal-2870237284-line-5)">
</text><text class="terminal-2870237284-r7" x="24.4" y="166.4" textLength="1037" clip-path="url(#terminal-2870237284-line-6)">turn&#160;2&#160;·&#160;agreement&#160;100%&#160;(need&#160;75%)&#160;·&#160;✓&#160;CONVERGED&#160;·&#160;elected&#160;claude&#160;&#160;&#160;[state-machine×3]</text><text class="terminal-2870237284-r3" x="1220" y="166.4" textLength="12.2" clip-path="url(#terminal-2870237284-line-6)">
</text><text class="terminal-2870237284-r3" x="1220" y="190.8" textLength="12.2" clip-path="url(#terminal-2870237284-line-7)">
</text><text class="terminal-2870237284-r8" x="12.2" y="215.2" textLength="12.2" clip-path="url(#terminal-2870237284-line-8)">╭</text><text class="terminal-2870237284-r8" x="24.4" y="215.2" textLength="1146.8" clip-path="url(#terminal-2870237284-line-8)">──────────────────────────────────────────────────────────────────────────────────────────────</text><text class="terminal-2870237284-r8" x="1171.2" y="215.2" textLength="12.2" clip-path="url(#terminal-2870237284-line-8)">╮</text><text class="terminal-2870237284-r3" x="1220" y="215.2" textLength="12.2" clip-path="url(#terminal-2870237284-line-8)">
</text><text class="terminal-2870237284-r8" x="12.2" y="239.6" textLength="12.2" clip-path="url(#terminal-2870237284-line-9)">│</text><text class="terminal-2870237284-r5" x="48.8" y="239.6" textLength="463.6" clip-path="url(#terminal-2870237284-line-9)">▼&#160;claude&#160;&#160;&#160;✓&#160;state-machine&#160;&#160;&#160;&#160;FIT&#160;0.50</text><text class="terminal-2870237284-r8" x="1171.2" y="239.6" textLength="12.2" clip-path="url(#terminal-2870237284-line-9)">│</text><text class="terminal-2870237284-r3" x="1220" y="239.6" textLength="12.2" clip-path="url(#terminal-2870237284-line-9)">
</text><text class="terminal-2870237284-r8" x="12.2" y="264" textLength="12.2" clip-path="url(#terminal-2870237284-line-10)">│</text><text class="terminal-2870237284-r8" x="1171.2" y="264" textLength="12.2" clip-path="url(#terminal-2870237284-line-10)">│</text><text class="terminal-2870237284-r3" x="1220" y="264" textLength="12.2" clip-path="url(#terminal-2870237284-line-10)">
</text><text class="terminal-2870237284-r8" x="12.2" y="288.4" textLength="12.2" clip-path="url(#terminal-2870237284-line-11)">│</text><text class="terminal-2870237284-r9" x="85.4" y="288.4" textLength="73.2" clip-path="url(#terminal-2870237284-line-11)">turn&#160;0</text><text class="terminal-2870237284-r9" x="183" y="288.4" textLength="73.2" clip-path="url(#terminal-2870237284-line-11)">turn&#160;1</text><text class="terminal-2870237284-r5" x="280.6" y="288.4" textLength="73.2" clip-path="url(#terminal-2870237284-line-11)">turn&#160;2</text><text class="terminal-2870237284-r8" x="1171.2" y="288.4" textLength="12.2" clip-path="url(#terminal-2870237284-line-11)">│</text><text class="terminal-2870237284-r3" x="1220" y="288.4" textLength="12.2" clip-path="url(#terminal-2870237284-line-11)">
</text><text class="terminal-2870237284-r8" x="12.2" y="312.8" textLength="12.2" clip-path="url(#terminal-2870237284-line-12)">│</text><text class="terminal-2870237284-r10" x="73.2" y="312.8" textLength="195.2" clip-path="url(#terminal-2870237284-line-12)">━━━━━━━━━━━━━━━━</text><text class="terminal-2870237284-r10" x="268.4" y="312.8" textLength="12.2" clip-path="url(#terminal-2870237284-line-12)">╸</text><text class="terminal-2870237284-r2" x="280.6" y="312.8" textLength="73.2" clip-path="url(#terminal-2870237284-line-12)">━━━━━━</text><text class="terminal-2870237284-r10" x="353.8" y="312.8" textLength="12.2" clip-path="url(#terminal-2870237284-line-12)">╺</text><text class="terminal-2870237284-r10" x="366" y="312.8" textLength="805.2" clip-path="url(#terminal-2870237284-line-12)">━━━━━━━━━━━━━━━━━━━━━━━━━━━━━━━━━━━━━━━━━━━━━━━━━━━━━━━━━━━━━━━━━━</text><text class="terminal-2870237284-r8" x="1171.2" y="312.8" textLength="12.2" clip-path="url(#terminal-2870237284-line-12)">│</text><text class="terminal-2870237284-r3" x="1220" y="312.8" textLength="12.2" clip-path="url(#terminal-2870237284-line-12)">
</text><text class="terminal-2870237284-r8" x="12.2" y="337.2" textLength="12.2" clip-path="url(#terminal-2870237284-line-13)">│</text><text class="terminal-2870237284-r5" x="85.4" y="337.2" textLength="280.6" clip-path="url(#terminal-2870237284-line-13)">APPROACH:&#160;state-machine</text><text class="terminal-2870237284-r8" x="1171.2" y="337.2" textLength="12.2" clip-path="url(#terminal-2870237284-line-13)">│</text><text class="terminal-2870237284-r3" x="1220" y="337.2" textLength="12.2" clip-path="url(#terminal-2870237284-line-13)">
</text><text class="terminal-2870237284-r8" x="12.2" y="361.6" textLength="12.2" clip-path="url(#terminal-2870237284-line-14)">│</text><text class="terminal-2870237284-r5" x="85.4" y="361.6" textLength="634.4" clip-path="url(#terminal-2870237284-line-14)">claude&#160;stands&#160;by&#160;state-machine&#160;after&#160;reviewing&#160;peers</text><text class="terminal-2870237284-r8" x="1171.2" y="361.6" textLength="12.2" clip-path="url(#terminal-2870237284-line-14)">│</text><text class="terminal-2870237284-r3" x="1220" y="361.6" textLength="12.2" clip-path="url(#terminal-2870237284-line-14)">
</text><text class="terminal-2870237284-r8" x="12.2" y="386" textLength="12.2" clip-path="url(#terminal-2870237284-line-15)">│</text><text class="terminal-2870237284-r8" x="1171.2" y="386" textLength="12.2" clip-path="url(#terminal-2870237284-line-15)">│</text><text class="terminal-2870237284-r3" x="1220" y="386" textLength="12.2" clip-path="url(#terminal-2870237284-line-15)">
</text><text class="terminal-2870237284-r8" x="12.2" y="410.4" textLength="12.2" clip-path="url(#terminal-2870237284-line-16)">│</text><text class="terminal-2870237284-r8" x="1171.2" y="410.4" textLength="12.2" clip-path="url(#terminal-2870237284-line-16)">│</text><text class="terminal-2870237284-r3" x="1220" y="410.4" textLength="12.2" clip-path="url(#terminal-2870237284-line-16)">
</text><text class="terminal-2870237284-r8" x="12.2" y="434.8" textLength="12.2" clip-path="url(#terminal-2870237284-line-17)">╰</text><text class="terminal-2870237284-r8" x="24.4" y="434.8" textLength="1146.8" clip-path="url(#terminal-2870237284-line-17)">──────────────────────────────────────────────────────────────────────────────────────────────</text><text class="terminal-2870237284-r8" x="1171.2" y="434.8" textLength="12.2" clip-path="url(#terminal-2870237284-line-17)">╯</text><text class="terminal-2870237284-r3" x="1220" y="434.8" textLength="12.2" clip-path="url(#terminal-2870237284-line-17)">
</text><text class="terminal-2870237284-r3" x="1220" y="459.2" textLength="12.2" clip-path="url(#terminal-2870237284-line-18)">
</text><text class="terminal-2870237284-r8" x="12.2" y="483.6" textLength="12.2" clip-path="url(#terminal-2870237284-line-19)">╭</text><text class="terminal-2870237284-r8" x="24.4" y="483.6" textLength="1146.8" clip-path="url(#terminal-2870237284-line-19)">──────────────────────────────────────────────────────────────────────────────────────────────</text><text class="terminal-2870237284-r8" x="1171.2" y="483.6" textLength="12.2" clip-path="url(#terminal-2870237284-line-19)">╮</text><text class="terminal-2870237284-r3" x="1220" y="483.6" textLength="12.2" clip-path="url(#terminal-2870237284-line-19)">
</text><text class="terminal-2870237284-r8" x="12.2" y="508" textLength="12.2" clip-path="url(#terminal-2870237284-line-20)">│</text><text class="terminal-2870237284-r5" x="48.8" y="508" textLength="463.6" clip-path="url(#terminal-2870237284-line-20)">▼&#160;cursor&#160;&#160;&#160;✓&#160;state-machine&#160;&#160;&#160;&#160;FIT&#160;0.50</text><text class="terminal-2870237284-r8" x="1171.2" y="508" textLength="12.2" clip-path="url(#terminal-2870237284-line-20)">│</text><text class="terminal-2870237284-r3" x="1220" y="508" textLength="12.2" clip-path="url(#terminal-2870237284-line-20)">
</text><text class="terminal-2870237284-r8" x="12.2" y="532.4" textLength="12.2" clip-path="url(#terminal-2870237284-line-21)">│</text><text class="terminal-2870237284-r8" x="1171.2" y="532.4" textLength="12.2" clip-path="url(#terminal-2870237284-line-21)">│</text><text class="terminal-2870237284-r3" x="1220" y="532.4" textLength="12.2" clip-path="url(#terminal-2870237284-line-21)">
</text><text class="terminal-2870237284-r8" x="12.2" y="556.8" textLength="12.2" clip-path="url(#terminal-2870237284-line-22)">│</text><text class="terminal-2870237284-r9" x="85.4" y="556.8" textLength="73.2" clip-path="url(#terminal-2870237284-line-22)">turn&#160;0</text><text class="terminal-2870237284-r9" x="183" y="556.8" textLength="73.2" clip-path="url(#terminal-2870237284-line-22)">turn&#160;1</text><text class="terminal-2870237284-r5" x="280.6" y="556.8" textLength="73.2" clip-path="url(#terminal-2870237284-line-22)">turn&#160;2</text><text class="terminal-2870237284-r8" x="1171.2" y="556.8" textLength="12.2" clip-path="url(#terminal-2870237284-line-22)">│</text><text class="terminal-2870237284-r3" x="1220" y="556.8" textLength="12.2" clip-path="url(#terminal-2870237284-line-22)">
</text><text class="terminal-2870237284-r8" x="12.2" y="581.2" textLength="12.2" clip-path="url(#terminal-2870237284-line-23)">│</text><text class="terminal-2870237284-r10" x="73.2" y="581.2" textLength="195.2" clip-path="url(#terminal-2870237284-line-23)">━━━━━━━━━━━━━━━━</text><text class="terminal-2870237284-r10" x="268.4" y="581.2" textLength="12.2" clip-path="url(#terminal-2870237284-line-23)">╸</text><text class="terminal-2870237284-r2" x="280.6" y="581.2" textLength="73.2" clip-path="url(#terminal-2870237284-line-23)">━━━━━━</text><text class="terminal-2870237284-r10" x="353.8" y="581.2" textLength="12.2" clip-path="url(#terminal-2870237284-line-23)">╺</text><text class="terminal-2870237284-r10" x="366" y="581.2" textLength="805.2" clip-path="url(#terminal-2870237284-line-23)">━━━━━━━━━━━━━━━━━━━━━━━━━━━━━━━━━━━━━━━━━━━━━━━━━━━━━━━━━━━━━━━━━━</text><text class="terminal-2870237284-r8" x="1171.2" y="581.2" textLength="12.2" clip-path="url(#terminal-2870237284-line-23)">│</text><text class="terminal-2870237284-r3" x="1220" y="581.2" textLength="12.2" clip-path="url(#terminal-2870237284-line-23)">
</text><text class="terminal-2870237284-r8" x="12.2" y="605.6" textLength="12.2" clip-path="url(#terminal-2870237284-line-24)">│</text><text class="terminal-2870237284-r5" x="85.4" y="605.6" textLength="280.6" clip-path="url(#terminal-2870237284-line-24)">APPROACH:&#160;state-machine</text><text class="terminal-2870237284-r8" x="1171.2" y="605.6" textLength="12.2" clip-path="url(#terminal-2870237284-line-24)">│</text><text class="terminal-2870237284-r3" x="1220" y="605.6" textLength="12.2" clip-path="url(#terminal-2870237284-line-24)">
</text><text class="terminal-2870237284-r8" x="12.2" y="630" textLength="12.2" clip-path="url(#terminal-2870237284-line-25)">│</text><text class="terminal-2870237284-r5" x="85.4" y="630" textLength="634.4" clip-path="url(#terminal-2870237284-line-25)">cursor&#160;stands&#160;by&#160;state-machine&#160;after&#160;reviewing&#160;peers</text><text class="terminal-2870237284-r8" x="1171.2" y="630" textLength="12.2" clip-path="url(#terminal-2870237284-line-25)">│</text><text class="terminal-2870237284-r11" x="1183.4" y="630" textLength="24.4" clip-path="url(#terminal-2870237284-line-25)">▁▁</text><text class="terminal-2870237284-r3" x="1220" y="630" textLength="12.2" clip-path="url(#terminal-2870237284-line-25)">
</text><text class="terminal-2870237284-r8" x="12.2" y="654.4" textLength="12.2" clip-path="url(#terminal-2870237284-line-26)">│</text><text class="terminal-2870237284-r8" x="1171.2" y="654.4" textLength="12.2" clip-path="url(#terminal-2870237284-line-26)">│</text><text class="terminal-2870237284-r3" x="1220" y="654.4" textLength="12.2" clip-path="url(#terminal-2870237284-line-26)">
</text><text class="terminal-2870237284-r8" x="12.2" y="678.8" textLength="12.2" clip-path="url(#terminal-2870237284-line-27)">│</text><text class="terminal-2870237284-r8" x="1171.2" y="678.8" textLength="12.2" clip-path="url(#terminal-2870237284-line-27)">│</text><text class="terminal-2870237284-r3" x="1220" y="678.8" textLength="12.2" clip-path="url(#terminal-2870237284-line-27)">
</text><text class="terminal-2870237284-r8" x="12.2" y="703.2" textLength="12.2" clip-path="url(#terminal-2870237284-line-28)">╰</text><text class="terminal-2870237284-r8" x="24.4" y="703.2" textLength="1146.8" clip-path="url(#terminal-2870237284-line-28)">──────────────────────────────────────────────────────────────────────────────────────────────</text><text class="terminal-2870237284-r8" x="1171.2" y="703.2" textLength="12.2" clip-path="url(#terminal-2870237284-line-28)">╯</text><text class="terminal-2870237284-r3" x="1220" y="703.2" textLength="12.2" clip-path="url(#terminal-2870237284-line-28)">
</text><text class="terminal-2870237284-r3" x="1220" y="727.6" textLength="12.2" clip-path="url(#terminal-2870237284-line-29)">
</text><text class="terminal-2870237284-r3" x="1220" y="752" textLength="12.2" clip-path="url(#terminal-2870237284-line-30)">
</text><text class="terminal-2870237284-r12" x="0" y="776.4" textLength="48.8" clip-path="url(#terminal-2870237284-line-31)">&#160;^q&#160;</text><text class="terminal-2870237284-r5" x="48.8" y="776.4" textLength="61" clip-path="url(#terminal-2870237284-line-31)">Quit&#160;</text><text class="terminal-2870237284-r12" x="109.8" y="776.4" textLength="48.8" clip-path="url(#terminal-2870237284-line-31)">&#160;^n&#160;</text><text class="terminal-2870237284-r5" x="158.6" y="776.4" textLength="146.4" clip-path="url(#terminal-2870237284-line-31)">New&#160;session&#160;</text><text class="terminal-2870237284-r13" x="1073.6" y="776.4" textLength="12.2" clip-path="url(#terminal-2870237284-line-31)">▏</text><text class="terminal-2870237284-r12" x="1085.8" y="776.4" textLength="24.4" clip-path="url(#terminal-2870237284-line-31)">^p</text><text class="terminal-2870237284-r5" x="1110.2" y="776.4" textLength="97.6" clip-path="url(#terminal-2870237284-line-31)">&#160;palette</text>
    </g>
    </g>
</svg>
