<svg class="rich-terminal" viewBox="0 0 970 684.4" xmlns="http://www.w3.org/2000/svg">
    <!-- Generated with Rich https://www.textualize.io -->
    <style>

    @font-face {
        font-family: "Fira Code";
        src: local("FiraCode-Regular"),
                url("https://cdnjs.cloudflare.com/ajax/libs/firacode/6.2.0/woff2/FiraCode-Regular.woff2") format("woff2"),
                url("https://cdnjs.cloudflare.com/ajax/libs/firacode/6.2.0/woff/FiraCode-Regular.woff") format("woff");
        font-style: normal;
        font-weight: 400;
    }
    @font-face {
        font-family: "Fira Code";
        src: local("FiraCode-Bold"),
                url("https://cdnjs.cloudflare.com/ajax/libs/firacode/6.2.0/woff2/FiraCode-Bold.woff2") format("woff2"),
                url("https://cdnjs.cloudflare.com/ajax/libs/firacode/6.2.0/woff/FiraCode-Bold.woff") format("woff");
        font-style: bold;
        font-weight: 700;
    }

    .terminal-2009310147-matrix {
        font-family: Fira Code, monospace;
        font-size: 20px;
        line-height: 24.4px;
        font-variant-east-asian: full-width;
    }

    .terminal-2009310147-title {
        font-size: 18px;
        font-weight: bold;
        font-family: arial;
    }

    .terminal-2009310147-r1 { fill: #121212 }
.terminal-2009310147-r2 { fill: #0178d4 }
.terminal-2009310147-r3 { fill: #c5c8c6 }
.terminal-2009310147-r4 { fill: #797979 }
.terminal-2009310147-r5 { fill: #e0e0e0 }
.terminal-2009310147-r6 { fill: #00ffff;font-weight: bold }
.terminal-2009310147-r7 { fill: #999999 }
.terminal-2009310147-r8 { fill: #e0e0e0;font-weight: bold }
.terminal-2009310147-r9 { fill: #e0e0e0;font-style: italic; }
.terminal-2009310147-r10 { fill: #008000;font-weight: bold }
.terminal-2009310147-r11 { fill: #ffa62b;font-weight: bold }
.terminal-2009310147-r12 { fill: #495259 }
    </style>

    <defs>
    <clipPath id="terminal-2009310147-clip-terminal">
      <rect x="0" y="0" width="950.5999999999999" height="633.4" />
    </clipPath>
    <clipPath id="terminal-2009310147-line-0">
    <rect x="0" y="1.5" width="951.6" height="24.65"/>
            </clipPath>
<clipPath id="terminal-2009310147-line-1">
    <rect x="0" y="25.9" width="951.6" height="24.65"/>
            </clipPath>
<clipPath id="terminal-2009310147-line-2">
    <rect x="0" y="50.3" width="951.6" height="24.65"/>
            </clipPath>
<clipPath id="terminal-2009310147-line-3">
    <rect x="0" y="74.7" width="951.6" height="24.65"/>
            </clipPath>
<clipPath id="terminal-2009310147-line-4">
    <rect x="0" y="99.1" width="951.6" height="24.65"/>
            </clipPath>
<clipPath id="terminal-2009310147-line-5">
    <rect x="0" y="123.5" width="951.6" height="24.65"/>
            </clipPath>
<clipPath id="terminal-2009310147-line-6">
    <rect x="0" y="147.9" width="951.6" height="24.65"/>
            </clipPath>
<clipPath id="terminal-2009310147-line-7">
    <rect x="0" y="172.3" width="951.6" height="24.65"/>
            </clipPath>
<clipPath id="terminal-2009310147-line-8">
    <rect x="0" y="196.7" width="951.6" height="24.65"/>
            </clipPath>
<clipPath id="terminal-2009310147-line-9">
    <rect x="0" y="221.1" width="951.6" height="24.65"/>
            </clipPath>
<clipPath id="terminal-2009310147-line-10">
    <rect x="0" y="245.5" width="951.6" height="24.65"/>
            </clipPath>
<clipPath id="terminal-2009310147-line-11">
    <rect x="0" y="269.9" width="951.6" height="24.65"/>
            </clipPath>
<clipPath id="terminal-2009310147-line-12">
    <rect x="0" y="294.3" width="951.6" height="24.65"/>
            </clipPath>
<clipPath id="terminal-2009310147-line-13">
    <rect x="0" y="318.7" width="951.6" height="24.65"/>
            </clipPath>
<clipPath id="terminal-2009310147-line-14">
    <rect x="0" y="343.1" width="951.6" height="24.65"/>
            </clipPath>
<clipPath id="terminal-2009310147-line-15">
    <rect x="0" y="367.5" width="951.6" height="24.65"/>
            </clipPath>
<clipPath id="terminal-2009310147-line-16">
    <rect x="0" y="391.9" width="951.6" height="24.65"/>
            </clipPath>
<clipPath id="terminal-2009310147-line-17">
    <rect x="0" y="416.3" width="951.6" height="24.65"/>
            </clipPath>
<clipPath id="terminal-2009310147-line-18">
    <rect x="0" y="440.7" width="951.6" height="24.65"/>
            </clipPath>
<clipPath id="terminal-2009310147-line-19">
    <rect x="0" y="465.1" width="951.6" height="24.65"/>
            </clipPath>
<clipPath id="terminal-2009310147-line-20">
    <rect x="0" y="489.5" width="951.6" height="24.65"/>
            </clipPath>
<clipPath id="terminal-2009310147-line-21">
    <rect x="0" y="513.9" width="951.6" height="24.65"/>
            </clipPath>
<clipPath id="terminal-2009310147-line-22">
    <rect x="0" y="538.3" width="951.6" height="24.65"/>
            </clipPath>
<clipPath id="terminal-2009310147-line-23">
    <rect x="0" y="562.7" width="951.6" height="24.65"/>
            </clipPath>
<clipPath id="terminal-2009310147-line-24">
    <rect x="0" y="587.1" width="951.6" height="24.65"/>
            </clipPath>
    </defs>

    <rect fill="#292929" stroke="rgba(255,255,255,0.35)" stroke-width="1" x="1" y="1" width="968" height="682.4" rx="8"/><text class="terminal-2009310147-title" fill="#c5c8c6" text-anchor="middle" x="484" y="27">AgentPanel</text>
            <g transform="translate(26,22)">
            <circle cx="0" cy="0" r="7" fill="#ff5f57"/>
            <circle cx="22" cy="0" r="7" fill="#febc2e"/>
            <circle cx="44" cy="0" r="7" fill="#28c840"/>
            </g>
        
    <g transform="translate(9, 41)" clip-path="url(#terminal-2009310147-clip-terminal)">
    <rect fill="#0178d4" x="0" y="1.5" width="12.2" height="24.65" shape-rendering="crispEdges"/><rect fill="#272727" x="12.2" y="1.5" width="85.4" height="24.65" shape-rendering="crispEdges"/><rect fill="#272727" x="97.6" y="1.5" width="732" height="24.65" shape-rendering="crispEdges"/><rect fill="#272727" x="829.6" y="1.5" width="109.8" height="24.65" shape-rendering="crispEdges"/><rect fill="#121212" x="939.4" y="1.5" width="12.2" height="24.65" shape-rendering="crispEdges"/><rect fill="#0178d4" x="0" y="25.9" width="12.2" height="24.65" shape-rendering="crispEdges"/><rect fill="#272727" x="12.2" y="25.9" width="24.4" height="24.65" shape-rendering="crispEdges"/><rect fill="#e0e0e0" x="36.6" y="25.9" width="12.2" height="24.65" shape-rendering="crispEdges"/><rect fill="#272727" x="48.8" y="25.9" width="549" height="24.65" shape-rendering="crispEdges"/><rect fill="#272727" x="597.8" y="25.9" width="317.2" height="24.65" shape-rendering="crispEdges"/><rect fill="#272727" x="915" y="25.9" width="24.4" height="24.65" shape-rendering="crispEdges"/><rect fill="#121212" x="939.4" y="25.9" width="12.2" height="24.65" shape-rendering="crispEdges"/><rect fill="#0178d4" x="0" y="50.3" width="12.2" height="24.65" shape-rendering="crispEdges"/><rect fill="#272727" x="12.2" y="50.3" width="927.2" height="24.65" shape-rendering="crispEdges"/><rect fill="#121212" x="939.4" y="50.3" width="12.2" height="24.65" shape-rendering="crispEdges"/><rect fill="#121212" x="0" y="74.7" width="951.6" height="24.65" shape-rendering="crispEdges"/><rect fill="#121212" x="0" y="99.1" width="24.4" height="24.65" shape-rendering="crispEdges"/><rect fill="#121212" x="24.4" y="99.1" width="61" height="24.65" shape-rendering="crispEdges"/><rect fill="#121212" x="85.4" y="99.1" width="0" height="24.65" shape-rendering="crispEdges"/><rect fill="#121212" x="85.4" y="99.1" width="841.8" height="24.65" shape-rendering="crispEdges"/><rect fill="#121212" x="927.2" y="99.1" width="24.4" height="24.65" shape-rendering="crispEdges"/><rect fill="#121212" x="0" y="123.5" width="24.4" height="24.65" shape-rendering="crispEdges"/><rect fill="#121212" x="24.4" y="123.5" width="61" height="24.65" shape-rendering="crispEdges"/><rect fill="#121212" x="85.4" y="123.5" width="671" height="24.65" shape-rendering="crispEdges"/><rect fill="#121212" x="756.4" y="123.5" width="170.8" height="24.65" shape-rendering="crispEdges"/><rect fill="#121212" x="927.2" y="123.5" width="24.4" height="24.65" shape-rendering="crispEdges"/><rect fill="#121212" x="0" y="147.9" width="24.4" height="24.65" shape-rendering="crispEdges"/><rect fill="#121212" x="24.4" y="147.9" width="61" height="24.65" shape-rendering="crispEdges"/><rect fill="#121212" x="85.4" y="147.9" width="695.4" height="24.65" shape-rendering="crispEdges"/><rect fill="#121212" x="780.8" y="147.9" width="146.4" height="24.65" shape-rendering="crispEdges"/><rect fill="#121212" x="927.2" y="147.9" width="24.4" height="24.65" shape-rendering="crispEdges"/><rect fill="#121212" x="0" y="172.3" width="24.4" height="24.65" shape-rendering="crispEdges"/><rect fill="#121212" x="24.4" y="172.3" width="61" height="24.65" shape-rendering="crispEdges"/><rect fill="#121212" x="85.4" y="172.3" width="671" height="24.65" shape-rendering="crispEdges"/><rect fill="#121212" x="756.4" y="172.3" width="170.8" height="24.65" shape-rendering="crispEdges"/><rect fill="#121212" x="927.2" y="172.3" width="24.4" height="24.65" shape-rendering="crispEdges"/><rect fill="#121212" x="0" y="196.7" width="24.4" height="24.65" shape-rendering="crispEdges"/><rect fill="#121212" x="24.4" y="196.7" width="61" height="24.65" shape-rendering="crispEdges"/><rect fill="#121212" x="85.4" y="196.7" width="707.6" height="24.65" shape-rendering="crispEdges"/><rect fill="#121212" x="793" y="196.7" width="134.2" height="24.65" shape-rendering="crispEdges"/><rect fill="#121212" x="927.2" y="196.7" width="24.4" height="24.65" shape-rendering="crispEdges"/><rect fill="#121212" x="0" y="221.1" width="24.4" height="24.65" shape-rendering="crispEdges"/><rect fill="#121212" x="24.4" y="221.1" width="61" height="24.65" shape-rendering="crispEdges"/><rect fill="#121212" x="85.4" y="221.1" width="0" height="24.65" shape-rendering="crispEdges"/><rect fill="#121212" x="85.4" y="221.1" width="841.8" height="24.65" shape-rendering="crispEdges"/><rect fill="#121212" x="927.2" y="221.1" width="24.4" height="24.65" shape-rendering="crispEdges"/><rect fill="#121212" x="0" y="245.5" width="24.4" height="24.65" shape-rendering="crispEdges"/><rect fill="#121212" x="24.4" y="245.5" width="61" height="24.65" shape-rendering="crispEdges"/><rect fill="#121212" x="85.4" y="245.5" width="0" height="24.65" shape-rendering="crispEdges"/><rect fill="#121212" x="85.4" y="245.5" width="841.8" height="24.65" shape-rendering="crispEdges"/><rect fill="#121212" x="927.2" y="245.5" width="24.4" height="24.65" shape-rendering="crispEdges"/><rect fill="#121212" x="0" y="269.9" width="24.4" height="24.65" shape-rendering="crispEdges"/><rect fill="#121212" x="24.4" y="269.9" width="61" height="24.65" shape-rendering="crispEdges"/><rect fill="#121212" x="85.4" y="269.9" width="24.4" height="24.65" shape-rendering="crispEdges"/><rect fill="#121212" x="109.8" y="269.9" width="109.8" height="24.65" shape-rendering="crispEdges"/><rect fill="#121212" x="219.6" y="269.9" width="268.4" height="24.65" shape-rendering="crispEdges"/><rect fill="#121212" x="488" y="269.9" width="61" height="24.65" shape-rendering="crispEdges"/><rect fill="#121212" x="549" y="269.9" width="292.8" height="24.65" shape-rendering="crispEdges"/><rect fill="#121212" x="841.8" y="269.9" width="85.4" height="24.65" shape-rendering="crispEdges"/><rect fill="#121212" x="927.2" y="269.9" width="24.4" height="24.65" shape-rendering="crispEdges"/><rect fill="#121212" x="0" y="294.3" width="24.4" height="24.65" shape-rendering="crispEdges"/><rect fill="#121212" x="24.4" y="294.3" width="61" height="24.65" shape-rendering="crispEdges"/><rect fill="#121212" x="85.4" y="294.3" width="707.6" height="24.65" shape-rendering="crispEdges"/><rect fill="#121212" x="793" y="294.3" width="134.2" height="24.65" shape-rendering="crispEdges"/><rect fill="#121212" x="927.2" y="294.3" width="24.4" height="24.65" shape-rendering="crispEdges"/><rect fill="#121212" x="0" y="318.7" width="24.4" height="24.65" shape-rendering="crispEdges"/><rect fill="#121212" x="24.4" y="318.7" width="61" height="24.65" shape-rendering="crispEdges"/><rect fill="#121212" x="85.4" y="318.7" width="610" height="24.65" shape-rendering="crispEdges"/><rect fill="#121212" x="695.4" y="318.7" width="231.8" height="24.65" shape-rendering="crispEdges"/><rect fill="#121212" x="927.2" y="318.7" width="24.4" height="24.65" shape-rendering="crispEdges"/><rect fill="#121212" x="0" y="343.1" width="24.4" height="24.65" shape-rendering="crispEdges"/><rect fill="#121212" x="24.4" y="343.1" width="61" height="24.65" shape-rendering="crispEdges"/><rect fill="#121212" x="85.4" y="343.1" width="0" height="24.65" shape-rendering="crispEdges"/><rect fill="#121212" x="85.4" y="343.1" width="841.8" height="24.65" shape-rendering="crispEdges"/><rect fill="#121212" x="927.2" y="343.1" width="24.4" height="24.65" shape-rendering="crispEdges"/><rect fill="#121212" x="0" y="367.5" width="24.4" height="24.65" shape-rendering="crispEdges"/><rect fill="#121212" x="24.4" y="367.5" width="61" height="24.65" shape-rendering="crispEdges"/><rect fill="#121212" x="85.4" y="367.5" width="317.2" height="24.65" shape-rendering="crispEdges"/><rect fill="#121212" x="402.6" y="367.5" width="73.2" height="24.65" shape-rendering="crispEdges"/><rect fill="#121212" x="475.8" y="367.5" width="305" height="24.65" shape-rendering="crispEdges"/><rect fill="#121212" x="780.8" y="367.5" width="146.4" height="24.65" shape-rendering="crispEdges"/><rect fill="#121212" x="927.2" y="367.5" width="24.4" height="24.65" shape-rendering="crispEdges"/><rect fill="#121212" x="0" y="391.9" width="24.4" height="24.65" shape-rendering="crispEdges"/><rect fill="#121212" x="24.4" y="391.9" width="61" height="24.65" shape-rendering="crispEdges"/><rect fill="#121212" x="85.4" y="391.9" width="85.4" height="24.65" shape-rendering="crispEdges"/><rect fill="#121212" x="170.8" y="391.9" width="183" height="24.65" shape-rendering="crispEdges"/><rect fill="#121212" x="353.8" y="391.9" width="183" height="24.65" shape-rendering="crispEdges"/><rect fill="#121212" x="536.8" y="391.9" width="36.6" height="24.65" shape-rendering="crispEdges"/><rect fill="#121212" x="573.4" y="391.9" width="280.6" height="24.65" shape-rendering="crispEdges"/><rect fill="#121212" x="854" y="391.9" width="73.2" height="24.65" shape-rendering="crispEdges"/><rect fill="#121212" x="927.2" y="391.9" width="24.4" height="24.65" shape-rendering="crispEdges"/><rect fill="#121212" x="0" y="416.3" width="24.4" height="24.65" shape-rendering="crispEdges"/><rect fill="#121212" x="24.4" y="416.3" width="61" height="24.65" shape-rendering="crispEdges"/><rect fill="#121212" x="85.4" y="416.3" width="0" height="24.65" shape-rendering="crispEdges"/><rect fill="#121212" x="85.4" y="416.3" width="841.8" height="24.65" shape-rendering="crispEdges"/><rect fill="#121212" x="927.2" y="416.3" width="24.4" height="24.65" shape-rendering="crispEdges"/><rect fill="#121212" x="0" y="440.7" width="24.4" height="24.65" shape-rendering="crispEdges"/><rect fill="#121212" x="24.4" y="440.7" width="61" height="24.65" shape-rendering="crispEdges"/><rect fill="#121212" x="85.4" y="440.7" width="707.6" height="24.65" shape-rendering="crispEdges"/><rect fill="#121212" x="793" y="440.7" width="134.2" height="24.65" shape-rendering="crispEdges"/><rect fill="#121212" x="927.2" y="440.7" width="24.4" height="24.65" shape-rendering="crispEdges"/><rect fill="#121212" x="0" y="465.1" width="24.4" height="24.65" shape-rendering="crispEdges"/><rect fill="#121212" x="24.4" y="465.1" width="61" height="24.65" shape-rendering="crispEdges"/><rect fill="#121212" x="85.4" y="465.1" width="292.8" height="24.65" shape-rendering="crispEdges"/><rect fill="#121212" x="378.2" y="465.1" width="207.4" height="24.65" shape-rendering="crispEdges"/><rect fill="#121212" x="585.6" y="465.1" width="341.6" height="24.65" shape-rendering="crispEdges"/><rect fill="#121212" x="927.2" y="465.1" width="24.4" height="24.65" shape-rendering="crispEdges"/><rect fill="#121212" x="0" y="489.5" width="24.4" height="24.65" shape-rendering="crispEdges"/><rect fill="#121212" x="24.4" y="489.5" width="61" height="24.65" shape-rendering="crispEdges"/><rect fill="#121212" x="85.4" y="489.5" width="0" height="24.65" shape-rendering="crispEdges"/><rect fill="#121212" x="85.4" y="489.5" width="841.8" height="24.65" shape-rendering="crispEdges"/><rect fill="#121212" x="927.2" y="489.5" width="24.4" height="24.65" shape-rendering="crispEdges"/><rect fill="#121212" x="0" y="513.9" width="24.4" height="24.65" shape-rendering="crispEdges"/><rect fill="#121212" x="24.4" y="513.9" width="61" height="24.65" shape-rendering="crispEdges"/><rect fill="#121212" x="85.4" y="513.9" width="719.8" height="24.65" shape-rendering="crispEdges"/><rect fill="#121212" x="805.2" y="513.9" width="122" height="24.65" shape-rendering="crispEdges"/><rect fill="#121212" x="927.2" y="513.9" width="24.4" height="24.65" shape-rendering="crispEdges"/><rect fill="#121212" x="0" y="538.3" width="24.4" height="24.65" shape-rendering="crispEdges"/><rect fill="#121212" x="24.4" y="538.3" width="61" height="24.65" shape-rendering="crispEdges"/><rect fill="#121212" x="85.4" y="538.3" width="24.4" height="24.65" shape-rendering="crispEdges"/><rect fill="#121212" x="109.8" y="538.3" width="12.2" height="24.65" shape-rendering="crispEdges"/><rect fill="#121212" x="122" y="538.3" width="402.6" height="24.65" shape-rendering="crispEdges"/><rect fill="#121212" x="524.6" y="538.3" width="61" height="24.65" shape-rendering="crispEdges"/><rect fill="#121212" x="585.6" y="538.3" width="268.4" height="24.65" shape-rendering="crispEdges"/><rect fill="#121212" x="854" y="538.3" width="73.2" height="24.65" shape-rendering="crispEdges"/><rect fill="#121212" x="927.2" y="538.3" width="24.4" height="24.65" shape-rendering="crispEdges"/><rect fill="#121212" x="0" y="562.7" width="24.4" height="24.65" shape-rendering="crispEdges"/><rect fill="#121212" x="24.4" y="562.7" width="61" height="24.65" shape-rendering="crispEdges"/><rect fill="#121212" x="85.4" y="562.7" width="0" height="24.65" shape-rendering="crispEdges"/><rect fill="#121212" x="85.4" y="562.7" width="841.8" height="24.65" shape-rendering="crispEdges"/><rect fill="#121212" x="927.2" y="562.7" width="24.4" height="24.65" shape-rendering="crispEdges"/><rect fill="#121212" x="0" y="587.1" width="951.6" height="24.65" shape-rendering="crispEdges"/><rect fill="#242f38" x="0" y="611.5" width="48.8" height="24.65" shape-rendering="crispEdges"/><rect fill="#242f38" x="48.8" y="611.5" width="61" height="24.65" shape-rendering="crispEdges"/><rect fill="#242f38" x="109.8" y="611.5" width="48.8" height="24.65" shape-rendering="crispEdges"/><rect fill="#242f38" x="158.6" y="611.5" width="146.4" height="24.65" shape-rendering="crispEdges"/><rect fill="#242f38" x="305" y="611.5" width="48.8" height="24.65" shape-rendering="crispEdges"/><rect fill="#242f38" x="353.8" y="611.5" width="256.2" height="24.65" shape-rendering="crispEdges"/><rect fill="#242f38" x="610" y="611.5" width="195.2" height="24.65" shape-rendering="crispEdges"/><rect fill="#242f38" x="805.2" y="611.5" width="12.2" height="24.65" shape-rendering="crispEdges"/><rect fill="#242f38" x="817.4" y="611.5" width="24.4" height="24.65" shape-rendering="crispEdges"/><rect fill="#242f38" x="841.8" y="611.5" width="97.6" height="24.65" shape-rendering="crispEdges"/><rect fill="#242f38" x="939.4" y="611.5" width="12.2" height="24.65" shape-rendering="crispEdges"/>
    <g class="terminal-2009310147-matrix">
    <text class="terminal-2009310147-r1" x="0" y="20" textLength="12.2" clip-path="url(#terminal-2009310147-line-0)">▊</text><text class="terminal-2009310147-r2" x="12.2" y="20" textLength="85.4" clip-path="url(#terminal-2009310147-line-0)">▔▔▔▔▔▔▔</text><text class="terminal-2009310147-r2" x="97.6" y="20" textLength="732" clip-path="url(#terminal-2009310147-line-0)">▔▔▔▔▔▔▔▔▔▔▔▔▔▔▔▔▔▔▔▔▔▔▔▔▔▔▔▔▔▔▔▔▔▔▔▔▔▔▔▔▔▔▔▔▔▔▔▔▔▔▔▔▔▔▔▔▔▔▔▔</text><text class="terminal-2009310147-r2" x="829.6" y="20" textLength="109.8" clip-path="url(#terminal-2009310147-line-0)">▔▔▔▔▔▔▔▔▔</text><text class="terminal-2009310147-r2" x="939.4" y="20" textLength="12.2" clip-path="url(#terminal-2009310147-line-0)">▎</text><text class="terminal-2009310147-r3" x="951.6" y="20" textLength="12.2" clip-path="url(#terminal-2009310147-line-0)">
</text><text class="terminal-2009310147-r1" x="0" y="44.4" textLength="12.2" clip-path="url(#terminal-2009310147-line-1)">▊</text><text class="terminal-2009310147-r1" x="36.6" y="44.4" textLength="12.2" clip-path="url(#terminal-2009310147-line-1)">A</text><text class="terminal-2009310147-r4" x="48.8" y="44.4" textLength="549" clip-path="url(#terminal-2009310147-line-1)">sk&#160;the&#160;panel…&#160;&#160;(Enter&#160;to&#160;start&#160;a&#160;new&#160;session)</text><text class="terminal-2009310147-r2" x="939.4" y="44.4" textLength="12.2" clip-path="url(#terminal-2009310147-line-1)">▎</text><text class="terminal-2009310147-r3" x="951.6" y="44.4" textLength="12.2" clip-path="url(#terminal-2009310147-line-1)">
</text><text class="terminal-2009310147-r1" x="0" y="68.8" textLength="12.2" clip-path="url(#terminal-2009310147-line-2)">▊</text><text class="terminal-2009310147-r2" x="12.2" y="68.8" textLength="927.2" clip-path="url(#terminal-2009310147-line-2)">▁▁▁▁▁▁▁▁▁▁▁▁▁▁▁▁▁▁▁▁▁▁▁▁▁▁▁▁▁▁▁▁▁▁▁▁▁▁▁▁▁▁▁▁▁▁▁▁▁▁▁▁▁▁▁▁▁▁▁▁▁▁▁▁▁▁▁▁▁▁▁▁▁▁▁▁</text><text class="terminal-2009310147-r2" x="939.4" y="68.8" textLength="12.2" clip-path="url(#terminal-2009310147-line-2)">▎</text><text class="terminal-2009310147-r3" x="951.6" y="68.8" textLength="12.2" clip-path="url(#terminal-2009310147-line-2)">
</text><text class="terminal-2009310147-r3" x="951.6" y="93.2" textLength="12.2" clip-path="url(#terminal-2009310147-line-3)">
</text><text class="terminal-2009310147-r3" x="951.6" y="117.6" textLength="12.2" clip-path="url(#terminal-2009310147-line-4)">
</text><text class="terminal-2009310147-r6" x="85.4" y="142" textLength="671" clip-path="url(#terminal-2009310147-line-5)">&#160;&#160;&#160;&#160;&#160;&#160;╭───────────────────────────────────────────────╮</text><text class="terminal-2009310147-r3" x="951.6" y="142" textLength="12.2" clip-path="url(#terminal-2009310147-line-5)">
</text><text class="terminal-2009310147-r6" x="85.4" y="166.4" textLength="695.4" clip-path="url(#terminal-2009310147-line-6)">&#160;&#160;&#160;&#160;&#160;&#160;│&#160;&#160;&#160;◆&#160;&#160;&#160;A&#160;G&#160;E&#160;N&#160;T&#160;&#160;&#160;P&#160;A&#160;N&#160;E&#160;L&#160;&#160;&#160;◆&#160;&#160;&#160;&#160;&#160;&#160;&#160;&#160;&#160;&#160;&#160;&#160;&#160;&#160;&#160;&#160;&#160;│</text><text class="terminal-2009310147-r3" x="951.6" y="166.4" textLength="12.2" clip-path="url(#terminal-2009310147-line-6)">
</text><text class="terminal-2009310147-r6" x="85.4" y="190.8" textLength="671" clip-path="url(#terminal-2009310147-line-7)">&#160;&#160;&#160;&#160;&#160;&#160;╰───────────────────────────────────────────────╯</text><text class="terminal-2009310147-r3" x="951.6" y="190.8" textLength="12.2" clip-path="url(#terminal-2009310147-line-7)">
</text><text class="terminal-2009310147-r7" x="85.4" y="215.2" textLength="707.6" clip-path="url(#terminal-2009310147-line-8)">&#160;&#160;&#160;&#160;&#160;&#160;&#160;&#160;a&#160;council&#160;of&#160;superagents&#160;—&#160;mediated,&#160;not&#160;commanded</text><text class="terminal-2009310147-r3" x="951.6" y="215.2" textLength="12.2" clip-path="url(#terminal-2009310147-line-8)">
</text><text class="terminal-2009310147-r3" x="951.6" y="239.6" textLength="12.2" clip-path="url(#terminal-2009310147-line-9)">
</text><text class="terminal-2009310147-r3" x="951.6" y="264" textLength="12.2" clip-path="url(#terminal-2009310147-line-10)">
</text><text class="terminal-2009310147-r8" x="109.8" y="288.4" textLength="109.8" clip-path="url(#terminal-2009310147-line-11)">Ask&#160;once.</text><text class="terminal-2009310147-r5" x="219.6" y="288.4" textLength="268.4" clip-path="url(#terminal-2009310147-line-11)">&#160;&#160;Each&#160;agent&#160;plans&#160;it&#160;</text><text class="terminal-2009310147-r9" x="488" y="288.4" textLength="61" clip-path="url(#terminal-2009310147-line-11)">alone</text><text class="terminal-2009310147-r5" x="549" y="288.4" textLength="292.8" clip-path="url(#terminal-2009310147-line-11)">,&#160;as&#160;if&#160;it&#160;were&#160;the&#160;only</text><text class="terminal-2009310147-r3" x="951.6" y="288.4" textLength="12.2" clip-path="url(#terminal-2009310147-line-11)">
</text><text class="terminal-2009310147-r5" x="85.4" y="312.8" textLength="707.6" clip-path="url(#terminal-2009310147-line-12)">&#160;&#160;mind&#160;in&#160;existence.&#160;Then&#160;they&#160;meet&#160;in&#160;the&#160;open&#160;—&#160;judging,</text><text class="terminal-2009310147-r3" x="951.6" y="312.8" textLength="12.2" clip-path="url(#terminal-2009310147-line-12)">
</text><text class="terminal-2009310147-r5" x="85.4" y="337.2" textLength="610" clip-path="url(#terminal-2009310147-line-13)">&#160;&#160;conceding,&#160;converging&#160;on&#160;a&#160;plan&#160;they&#160;can&#160;defend.</text><text class="terminal-2009310147-r3" x="951.6" y="337.2" textLength="12.2" clip-path="url(#terminal-2009310147-line-13)">
</text><text class="terminal-2009310147-r3" x="951.6" y="361.6" textLength="12.2" clip-path="url(#terminal-2009310147-line-14)">
</text><text class="terminal-2009310147-r5" x="85.4" y="386" textLength="317.2" clip-path="url(#terminal-2009310147-line-15)">&#160;&#160;The&#160;one&#160;best&#160;positioned&#160;</text><text class="terminal-2009310147-r10" x="402.6" y="386" textLength="73.2" clip-path="url(#terminal-2009310147-line-15)">builds</text><text class="terminal-2009310147-r5" x="475.8" y="386" textLength="305" clip-path="url(#terminal-2009310147-line-15)">.&#160;&#160;The&#160;others&#160;don&#x27;t&#160;rest:</text><text class="terminal-2009310147-r3" x="951.6" y="386" textLength="12.2" clip-path="url(#terminal-2009310147-line-15)">
</text><text class="terminal-2009310147-r5" x="85.4" y="410.4" textLength="85.4" clip-path="url(#terminal-2009310147-line-16)">&#160;&#160;they&#160;</text><text class="terminal-2009310147-r8" x="170.8" y="410.4" textLength="183" clip-path="url(#terminal-2009310147-line-16)">watch&#160;and&#160;coach</text><text class="terminal-2009310147-r5" x="353.8" y="410.4" textLength="183" clip-path="url(#terminal-2009310147-line-16)">.&#160;&#160;Competition&#160;</text><text class="terminal-2009310147-r9" x="536.8" y="410.4" textLength="36.6" clip-path="url(#terminal-2009310147-line-16)">and</text><text class="terminal-2009310147-r5" x="573.4" y="410.4" textLength="280.6" clip-path="url(#terminal-2009310147-line-16)">&#160;cooperation,&#160;together.</text><text class="terminal-2009310147-r3" x="951.6" y="410.4" textLength="12.2" clip-path="url(#terminal-2009310147-line-16)">
</text><text class="terminal-2009310147-r3" x="951.6" y="434.8" textLength="12.2" clip-path="url(#terminal-2009310147-line-17)">
</text><text class="terminal-2009310147-r5" x="85.4" y="459.2" textLength="707.6" clip-path="url(#terminal-2009310147-line-18)">&#160;&#160;Each&#160;keeps&#160;its&#160;own&#160;mind,&#160;its&#160;own&#160;tools,&#160;its&#160;own&#160;session.</text><text class="terminal-2009310147-r3" x="951.6" y="459.2" textLength="12.2" clip-path="url(#terminal-2009310147-line-18)">
</text><text class="terminal-2009310147-r5" x="85.4" y="483.6" textLength="292.8" clip-path="url(#terminal-2009310147-line-19)">&#160;&#160;You&#160;don&#x27;t&#160;drive&#160;them.&#160;</text><text class="terminal-2009310147-r6" x="378.2" y="483.6" textLength="207.4" clip-path="url(#terminal-2009310147-line-19)">You&#160;convene&#160;them.</text><text class="terminal-2009310147-r3" x="951.6" y="483.6" textLength="12.2" clip-path="url(#terminal-2009310147-line-19)">
</text><text class="terminal-2009310147-r3" x="951.6" y="508" textLength="12.2" clip-path="url(#terminal-2009310147-line-20)">
</text><text class="terminal-2009310147-r7" x="85.4" y="532.4" textLength="719.8" clip-path="url(#terminal-2009310147-line-21)">&#160;&#160;─────────────────────────────────────────────────────────</text><text class="terminal-2009310147-r3" x="951.6" y="532.4" textLength="12.2" clip-path="url(#terminal-2009310147-line-21)">
</text><text class="terminal-2009310147-r6" x="109.8" y="556.8" textLength="12.2" clip-path="url(#terminal-2009310147-line-22)">▸</text><text class="terminal-2009310147-r5" x="122" y="556.8" textLength="402.6" clip-path="url(#terminal-2009310147-line-22)">&#160;&#160;Type&#160;a&#160;request&#160;above&#160;and&#160;press&#160;</text><text class="terminal-2009310147-r8" x="524.6" y="556.8" textLength="61" clip-path="url(#terminal-2009310147-line-22)">Enter</text><text class="terminal-2009310147-r5" x="585.6" y="556.8" textLength="268.4" clip-path="url(#terminal-2009310147-line-22)">&#160;to&#160;convene&#160;the&#160;panel.</text><text class="terminal-2009310147-r3" x="951.6" y="556.8" textLength="12.2" clip-path="url(#terminal-2009310147-line-22)">
</text><text class="terminal-2009310147-r3" x="951.6" y="581.2" textLength="12.2" clip-path="url(#terminal-2009310147-line-23)">
</text><text class="terminal-2009310147-r3" x="951.6" y="605.6" textLength="12.2" clip-path="url(#terminal-2009310147-line-24)">
</text><text class="terminal-2009310147-r11" x="0" y="630" textLength="48.8" clip-path="url(#terminal-2009310147-line-25)">&#160;^q&#160;</text><text class="terminal-2009310147-r5" x="48.8" y="630" textLength="61" clip-path="url(#terminal-2009310147-line-25)">Quit&#160;</text><text class="terminal-2009310147-r11" x="109.8" y="630" textLength="48.8" clip-path="url(#terminal-2009310147-line-25)">&#160;^n&#160;</text><text class="terminal-2009310147-r5" x="158.6" y="630" textLength="146.4" clip-path="url(#terminal-2009310147-line-25)">New&#160;session&#160;</text><text class="terminal-2009310147-r11" x="305" y="630" textLength="48.8" clip-path="url(#terminal-2009310147-line-25)">&#160;^o&#160;</text><text class="terminal-2009310147-r5" x="353.8" y="630" textLength="256.2" clip-path="url(#terminal-2009310147-line-25)">Open&#160;agent&#x27;s&#160;session&#160;</text><text class="terminal-2009310147-r12" x="805.2" y="630" textLength="12.2" clip-path="url(#terminal-2009310147-line-25)">▏</text><text class="terminal-2009310147-r11" x="817.4" y="630" textLength="24.4" clip-path="url(#terminal-2009310147-line-25)">^p</text><text class="terminal-2009310147-r5" x="841.8" y="630" textLength="97.6" clip-path="url(#terminal-2009310147-line-25)">&#160;palette</text>
    </g>
    </g>
</svg>
